<mxfile host="app.diagrams.net" agent="Mozilla/5.0 (X11; Linux x86_64; rv:142.0) Gecko/20100101 Firefox/142.0" version="28.1.2">
  <diagram name="Page-1" id="Lapr4w3OVQyDAEPS7Lfi">
    <mxGraphModel dx="1614" dy="1073" grid="1" gridSize="10" guides="1" tooltips="1" connect="1" arrows="1" fold="1" page="1" pageScale="1" pageWidth="850" pageHeight="1100" math="0" shadow="0">
      <root>
        <mxCell id="0" />
        <mxCell id="1" parent="0" />
        <mxCell id="hAUUxF_gj6Qk1ZFcpUJp-1" value="GameSession" style="swimlane;fontStyle=0;childLayout=stackLayout;horizontal=1;startSize=50;fillColor=none;horizontalStack=0;resizeParent=1;resizeParentMax=0;resizeLast=0;collapsible=1;marginBottom=0;whiteSpace=wrap;html=1;" vertex="1" parent="1">
          <mxGeometry x="90" y="260" width="230" height="292" as="geometry" />
        </mxCell>
        <mxCell id="hAUUxF_gj6Qk1ZFcpUJp-13" value="- start_game()" style="text;strokeColor=none;fillColor=none;align=left;verticalAlign=top;spacingLeft=4;spacingRight=4;overflow=hidden;rotatable=0;points=[[0,0.5],[1,0.5]];portConstraint=eastwest;whiteSpace=wrap;html=1;" vertex="1" parent="hAUUxF_gj6Qk1ZFcpUJp-1">
          <mxGeometry y="50" width="230" height="26" as="geometry" />
        </mxCell>
        <mxCell id="hAUUxF_gj6Qk1ZFcpUJp-15" value="- play_main_phase()" style="text;strokeColor=none;fillColor=none;align=left;verticalAlign=top;spacingLeft=4;spacingRight=4;overflow=hidden;rotatable=0;points=[[0,0.5],[1,0.5]];portConstraint=eastwest;whiteSpace=wrap;html=1;fontStyle=0" vertex="1" parent="hAUUxF_gj6Qk1ZFcpUJp-1">
          <mxGeometry y="76" width="230" height="26" as="geometry" />
        </mxCell>
        <mxCell id="hAUUxF_gj6Qk1ZFcpUJp-16" value="- hook_before_end()" style="text;strokeColor=none;fillColor=none;align=left;verticalAlign=top;spacingLeft=4;spacingRight=4;overflow=hidden;rotatable=0;points=[[0,0.5],[1,0.5]];portConstraint=eastwest;whiteSpace=wrap;html=1;fontStyle=0" vertex="1" parent="hAUUxF_gj6Qk1ZFcpUJp-1">
          <mxGeometry y="102" width="230" height="26" as="geometry" />
        </mxCell>
        <mxCell id="hAUUxF_gj6Qk1ZFcpUJp-14" value="- end_game()" style="text;strokeColor=none;fillColor=none;align=left;verticalAlign=top;spacingLeft=4;spacingRight=4;overflow=hidden;rotatable=0;points=[[0,0.5],[1,0.5]];portConstraint=eastwest;whiteSpace=wrap;html=1;" vertex="1" parent="hAUUxF_gj6Qk1ZFcpUJp-1">
          <mxGeometry y="128" width="230" height="26" as="geometry" />
        </mxCell>
        <mxCell id="hAUUxF_gj6Qk1ZFcpUJp-5" value="" style="line;strokeWidth=1;fillColor=none;align=left;verticalAlign=middle;spacingTop=-1;spacingLeft=3;spacingRight=3;rotatable=0;labelPosition=right;points=[];portConstraint=eastwest;strokeColor=inherit;" vertex="1" parent="hAUUxF_gj6Qk1ZFcpUJp-1">
          <mxGeometry y="154" width="230" height="8" as="geometry" />
        </mxCell>
        <mxCell id="hAUUxF_gj6Qk1ZFcpUJp-6" value="+ play_game()" style="text;strokeColor=none;fillColor=none;align=left;verticalAlign=top;spacingLeft=4;spacingRight=4;overflow=hidden;rotatable=0;points=[[0,0.5],[1,0.5]];portConstraint=eastwest;whiteSpace=wrap;html=1;" vertex="1" parent="hAUUxF_gj6Qk1ZFcpUJp-1">
          <mxGeometry y="162" width="230" height="26" as="geometry" />
        </mxCell>
        <mxCell id="hAUUxF_gj6Qk1ZFcpUJp-7" value="+ start_game()" style="text;strokeColor=none;fillColor=none;align=left;verticalAlign=top;spacingLeft=4;spacingRight=4;overflow=hidden;rotatable=0;points=[[0,0.5],[1,0.5]];portConstraint=eastwest;whiteSpace=wrap;html=1;" vertex="1" parent="hAUUxF_gj6Qk1ZFcpUJp-1">
          <mxGeometry y="188" width="230" height="26" as="geometry" />
        </mxCell>
        <mxCell id="hAUUxF_gj6Qk1ZFcpUJp-8" value="+ end_game()" style="text;strokeColor=none;fillColor=none;align=left;verticalAlign=top;spacingLeft=4;spacingRight=4;overflow=hidden;rotatable=0;points=[[0,0.5],[1,0.5]];portConstraint=eastwest;whiteSpace=wrap;html=1;" vertex="1" parent="hAUUxF_gj6Qk1ZFcpUJp-1">
          <mxGeometry y="214" width="230" height="26" as="geometry" />
        </mxCell>
        <mxCell id="hAUUxF_gj6Qk1ZFcpUJp-9" value="+ play_main_phase()" style="text;strokeColor=none;fillColor=none;align=left;verticalAlign=top;spacingLeft=4;spacingRight=4;overflow=hidden;rotatable=0;points=[[0,0.5],[1,0.5]];portConstraint=eastwest;whiteSpace=wrap;html=1;fontStyle=2" vertex="1" parent="hAUUxF_gj6Qk1ZFcpUJp-1">
          <mxGeometry y="240" width="230" height="26" as="geometry" />
        </mxCell>
        <mxCell id="hAUUxF_gj6Qk1ZFcpUJp-10" value="+ hook_before_end()" style="text;strokeColor=none;fillColor=none;align=left;verticalAlign=top;spacingLeft=4;spacingRight=4;overflow=hidden;rotatable=0;points=[[0,0.5],[1,0.5]];portConstraint=eastwest;whiteSpace=wrap;html=1;fontStyle=2" vertex="1" parent="hAUUxF_gj6Qk1ZFcpUJp-1">
          <mxGeometry y="266" width="230" height="26" as="geometry" />
        </mxCell>
        <mxCell id="hAUUxF_gj6Qk1ZFcpUJp-17" value="ChessGame" style="swimlane;fontStyle=0;childLayout=stackLayout;horizontal=1;startSize=30;fillColor=none;horizontalStack=0;resizeParent=1;resizeParentMax=0;resizeLast=0;collapsible=1;marginBottom=0;whiteSpace=wrap;html=1;" vertex="1" parent="1">
          <mxGeometry x="-70" y="676" width="150" height="60" as="geometry" />
        </mxCell>
        <mxCell id="hAUUxF_gj6Qk1ZFcpUJp-18" value="&lt;span&gt;+ play_main_phase&lt;/span&gt;()" style="text;strokeColor=none;fillColor=none;align=left;verticalAlign=top;spacingLeft=4;spacingRight=4;overflow=hidden;rotatable=0;points=[[0,0.5],[1,0.5]];portConstraint=eastwest;whiteSpace=wrap;html=1;fontStyle=0" vertex="1" parent="hAUUxF_gj6Qk1ZFcpUJp-17">
          <mxGeometry y="30" width="150" height="30" as="geometry" />
        </mxCell>
        <mxCell id="hAUUxF_gj6Qk1ZFcpUJp-20" value="PokerGame" style="swimlane;fontStyle=0;childLayout=stackLayout;horizontal=1;startSize=30;fillColor=none;horizontalStack=0;resizeParent=1;resizeParentMax=0;resizeLast=0;collapsible=1;marginBottom=0;whiteSpace=wrap;html=1;" vertex="1" parent="1">
          <mxGeometry x="230" y="670" width="150" height="86" as="geometry" />
        </mxCell>
        <mxCell id="hAUUxF_gj6Qk1ZFcpUJp-21" value="&lt;span&gt;+ play_main_phase&lt;/span&gt;()" style="text;strokeColor=none;fillColor=none;align=left;verticalAlign=top;spacingLeft=4;spacingRight=4;overflow=hidden;rotatable=0;points=[[0,0.5],[1,0.5]];portConstraint=eastwest;whiteSpace=wrap;html=1;fontStyle=0" vertex="1" parent="hAUUxF_gj6Qk1ZFcpUJp-20">
          <mxGeometry y="30" width="150" height="30" as="geometry" />
        </mxCell>
        <mxCell id="hAUUxF_gj6Qk1ZFcpUJp-23" value="- hook_before_end()" style="text;strokeColor=none;fillColor=none;align=left;verticalAlign=top;spacingLeft=4;spacingRight=4;overflow=hidden;rotatable=0;points=[[0,0.5],[1,0.5]];portConstraint=eastwest;whiteSpace=wrap;html=1;fontStyle=0" vertex="1" parent="hAUUxF_gj6Qk1ZFcpUJp-20">
          <mxGeometry y="60" width="150" height="26" as="geometry" />
        </mxCell>
        <mxCell id="hAUUxF_gj6Qk1ZFcpUJp-25" value="" style="endArrow=block;endSize=16;endFill=0;html=1;rounded=0;fontSize=12;curved=1;entryX=0.322;entryY=1.064;entryDx=0;entryDy=0;entryPerimeter=0;" edge="1" parent="1" source="hAUUxF_gj6Qk1ZFcpUJp-17" target="hAUUxF_gj6Qk1ZFcpUJp-10">
          <mxGeometry width="160" relative="1" as="geometry">
            <mxPoint x="-30" y="450" as="sourcePoint" />
            <mxPoint x="130" y="450" as="targetPoint" />
          </mxGeometry>
        </mxCell>
        <mxCell id="hAUUxF_gj6Qk1ZFcpUJp-26" value="" style="endArrow=block;endSize=16;endFill=0;html=1;rounded=0;fontSize=12;curved=1;entryX=0.736;entryY=0.991;entryDx=0;entryDy=0;entryPerimeter=0;exitX=0.75;exitY=0;exitDx=0;exitDy=0;" edge="1" parent="1" source="hAUUxF_gj6Qk1ZFcpUJp-20" target="hAUUxF_gj6Qk1ZFcpUJp-10">
          <mxGeometry width="160" relative="1" as="geometry">
            <mxPoint x="-80" y="580" as="sourcePoint" />
            <mxPoint x="80" y="580" as="targetPoint" />
          </mxGeometry>
        </mxCell>
        <mxCell id="hAUUxF_gj6Qk1ZFcpUJp-27" value="наследование" style="text;html=1;align=center;verticalAlign=middle;resizable=0;points=[];autosize=1;strokeColor=none;fillColor=none;fontSize=16;" vertex="1" parent="1">
          <mxGeometry x="-40" y="580" width="110" height="30" as="geometry" />
        </mxCell>
      </root>
    </mxGraphModel>
  </diagram>
</mxfile>
